# xmcd CD database file
#
# Track frame offsets:
#	150
#	12397
#	25127
#	39280
#	50217
#	65990
#	75407
#	88125
#	101725
#	114785
#	137027
#
# Disc length: 1977 seconds
#
# Revision: 3
# Processed by: cddbd v1.5PL3 Copyright (c) Steve Scherf et al.
# Submitted via: CDex 1.51
#
DISCID=8e07b70b
DTITLE=Michel Polnareff - Michel Polnareff 2
DYEAR=1968
DGENRE=Pop
TTITLE0=Jour apres jour
TTITLE1=Le roi des fourmis
TTITLE2=Rosee d'amour n'a pas vu le jour
TTITLE3=Ta Ta Ta Ta
TTITLE4=Mes regrets
TTITLE5=Les grands sentiments humains
TTITLE6=Pipelette
TTITLE7=Ame Caine
TTITLE8=Y'a qu'un ch'veu
TTITLE9=Le bal des Laze
TTITLE10=Oh! Louis
EXTD=YEAR: 1968
EXTT0=
EXTT1=
EXTT2=
EXTT3=
EXTT4=
EXTT5=
EXTT6=
EXTT7=
EXTT8=
EXTT9=
EXTT10=
PLAYORDER=
